<?xml version="1.0" encoding="iso-8859-1"?>
<!-- Generator: Adobe Illustrator 19.0.0, SVG Export Plug-In . SVG Version: 6.00 Build 0)  -->
<svg version="1.1" id="Capa_1" xmlns="http://www.w3.org/2000/svg" xmlns:xlink="http://www.w3.org/1999/xlink" x="0px" y="0px"
	 viewBox="0 0 512.001 512.001" style="enable-background:new 0 0 512.001 512.001;" xml:space="preserve">
<path style="fill:#92CDF4;" d="M476.513,506.177c-8.273,0-14.981-6.707-14.981-14.981V363.157c0-8.273,6.707-14.981,14.981-14.981
	s14.981,6.707,14.981,14.981v128.039C491.494,499.47,484.787,506.177,476.513,506.177z"/>
<path style="fill:#C7E6FF;" d="M170.12,483.3h-51.096c-54.324,0-98.519-44.195-98.519-98.519v-28.382
	c0-8.273,6.707-14.981,14.981-14.981s14.981,6.707,14.981,14.981v28.382c0,37.803,30.755,68.557,68.557,68.557h51.096
	c8.273,0,14.981,6.707,14.981,14.981S178.394,483.3,170.12,483.3z"/>
<path style="fill:#488AFF;" d="M274.588,456.734v21.542c0,12.115-7.77,22.461-18.586,26.296c-2.916,1.049-6.052,1.608-9.318,1.608
	h-63.639c-15.39,0-27.904-12.524-27.904-27.904v-21.542c0-15.39,12.514-27.904,27.904-27.904h63.639
	c3.266,0,6.402,0.559,9.318,1.608C266.818,434.272,274.588,444.609,274.588,456.734z"/>
<path style="fill:#2877EA;" d="M274.588,456.734v21.542c0,12.115-7.77,22.461-18.586,26.296v-74.135
	C266.818,434.272,274.588,444.609,274.588,456.734z"/>
<path style="fill:#FFE05F;" d="M24.818,189.841C11.112,189.841,0,200.953,0,214.659v130.595c0,13.706,11.112,24.818,24.818,24.818
	h21.337c13.706,0,24.818-11.112,24.818-24.818V202.122c0-6.783-5.499-12.282-12.282-12.282L24.818,189.841L24.818,189.841z"/>
<path style="fill:#FFBF61;" d="M487.182,197.907h-34.935c-6.196,0-11.22,5.024-11.22,11.22V353.32
	c0,13.706,11.112,24.818,24.818,24.818h21.337c13.707,0,24.819-11.112,24.819-24.819V222.725
	C512,209.019,500.888,197.907,487.182,197.907z"/>
<path style="fill:#C7E6FF;" d="M470.986,179.828V224.8c0,8.269-6.701,14.981-14.981,14.981H55.997
	c-8.279,0-14.981-6.711-14.981-14.981v-44.972c0-95.947,78.05-174.007,174.007-174.007h81.955
	C392.926,5.821,470.986,83.881,470.986,179.828z"/>
<path style="fill:#92CDF4;" d="M470.986,179.828V224.8c0,8.269-6.701,14.981-14.981,14.981H256.001V5.821h40.978
	C392.926,5.821,470.986,83.881,470.986,179.828z"/>
<path style="fill:#488AFF;" d="M470.986,213.055v53.751c0,44.393-36.114,80.517-80.517,80.517h-51.864
	c-32.009,0-62.52-14.631-82.604-39.38c-0.01-0.01-0.01-0.01-0.02-0.02c-20.074,24.748-50.615,39.4-82.624,39.4h-51.834
	c-44.393,0-80.507-36.124-80.507-80.517v-53.751l11.395-2.806c66.555-16.369,135.047-24.678,203.59-24.678
	c68.532,0,137.035,8.309,203.58,24.678L470.986,213.055z"/>
<path style="fill:#2877EA;" d="M470.986,213.055v53.751c0,44.393-36.114,80.517-80.517,80.517h-51.864
	c-32.009,0-62.52-14.631-82.604-39.38V185.571c68.532,0,137.035,8.309,203.58,24.678L470.986,213.055z"/>
<g>
</g>
<g>
</g>
<g>
</g>
<g>
</g>
<g>
</g>
<g>
</g>
<g>
</g>
<g>
</g>
<g>
</g>
<g>
</g>
<g>
</g>
<g>
</g>
<g>
</g>
<g>
</g>
<g>
</g>
</svg>
