<?xml version="1.0" encoding="iso-8859-1"?>
<!-- Generator: Adobe Illustrator 19.0.0, SVG Export Plug-In . SVG Version: 6.00 Build 0)  -->
<svg version="1.1" id="Layer_1" xmlns="http://www.w3.org/2000/svg" xmlns:xlink="http://www.w3.org/1999/xlink" x="0px" y="0px"
	 viewBox="0 0 512 512" style="enable-background:new 0 0 512 512;" xml:space="preserve">
<g>
	<path style="fill:#A9A8AE;" d="M219.812,184c6.006,4.96,10.52,11.083,13.619,18.381h45.138c3.099-7.297,7.614-13.42,13.619-18.381
		c4.147-3.426,8.991-6.308,14.548-8.66c16.766-7.092,40.099-9.268,71.423-9.721H133.841c31.325,0.453,54.658,2.628,71.423,9.721
		C210.822,177.692,215.666,180.574,219.812,184z"/>
	<path style="fill:#A9A8AE;" d="M273.993,239.142h-35.986c-0.668,6.029-2.008,12.195-3.975,18.381
		c-1.957,6.149-4.53,12.314-7.666,18.381h59.268c-3.136-6.067-5.709-12.232-7.666-18.381
		C276.001,251.337,274.66,245.171,273.993,239.142z"/>
</g>
<path style="fill:#57575C;" d="M38.898,208.85H18.381C8.23,208.85,0,217.079,0,227.23s8.23,18.381,18.381,18.381h10.837
	c0.502-6.477,1.496-12.605,2.94-18.381C33.808,220.618,36.069,214.486,38.898,208.85z"/>
<path style="fill:#77757F;" d="M493.619,208.85h-20.515c2.828,5.637,5.089,11.768,6.741,18.381
	c1.442,5.775,2.435,11.903,2.94,18.381h10.835c10.151,0,18.381-8.23,18.381-18.381S503.77,208.85,493.619,208.85z"/>
<path style="fill:#5286FA;" d="M238.007,239.142c0.324-2.915,0.495-5.8,0.495-8.636c0-10.837-1.695-20.177-5.072-28.125
	c-3.099-7.297-7.613-13.42-13.619-18.381c-4.147-3.426-8.991-6.308-14.548-8.66c-16.766-7.092-40.099-9.268-71.423-9.721
	c-4.803-0.07-9.778-0.102-14.964-0.102c-38.276,0-66.065,15.6-79.979,43.33c-2.829,5.637-5.09,11.768-6.742,18.381
	c-1.443,5.775-2.436,11.903-2.94,18.381c-0.263,3.371-0.396,6.835-0.396,10.39c0,49.891,40.399,90.482,90.055,90.482
	c31.319,0,61.726-14.1,85.62-39.705c8.888-9.522,16.273-20.04,21.869-30.872c3.136-6.067,5.709-12.232,7.666-18.381
	C235.999,251.337,237.34,245.171,238.007,239.142z"/>
<path style="fill:#9BC9FF;" d="M473.104,208.85c-13.914-27.73-41.703-43.33-79.98-43.33c-5.185,0-10.161,0.032-14.964,0.102
	c-31.325,0.453-54.658,2.628-71.423,9.721c-5.557,2.35-10.401,5.234-14.548,8.66c-6.004,4.96-10.52,11.083-13.619,18.381
	c-3.377,7.948-5.072,17.288-5.072,28.125c0,2.837,0.173,5.721,0.495,8.636c0.668,6.028,2.008,12.195,3.975,18.381
	c1.957,6.149,4.53,12.314,7.666,18.381c5.596,10.834,12.982,21.35,21.869,30.872c23.895,25.604,54.301,39.706,85.62,39.706
	c49.657,0,90.056-40.589,90.056-90.482c0-3.554-0.134-7.018-0.395-10.39c-0.505-6.477-1.499-12.605-2.94-18.381
	C478.193,220.618,475.931,214.486,473.104,208.85z"/>
<path style="fill:#424EDE;" d="M118.877,165.518c-38.276,0-66.065,15.6-79.979,43.33c-2.829,5.637-5.09,11.768-6.742,18.381
	c-1.443,5.775-2.436,11.903-2.938,18.381c-0.263,3.371-0.396,6.835-0.396,10.39c0,49.891,40.399,90.482,90.055,90.482
	c4.892,0,9.76-0.344,14.586-1.022V165.615C128.776,165.55,123.927,165.518,118.877,165.518z"/>
<path style="fill:#57A4FF;" d="M378.159,165.62c-31.325,0.453-54.659,2.628-71.423,9.721c-5.557,2.35-10.401,5.234-14.548,8.66
	c-6.004,4.96-10.52,11.083-13.619,18.381c-3.377,7.948-5.072,17.288-5.072,28.125c0,2.837,0.173,5.721,0.495,8.636
	c0.668,6.028,2.008,12.195,3.975,18.381c1.957,6.149,4.53,12.314,7.666,18.381c5.596,10.834,12.982,21.35,21.869,30.872
	c20.164,21.606,44.963,35.02,71.035,38.684V165.615C378.412,165.617,378.284,165.618,378.159,165.62z"/>
<g>
</g>
<g>
</g>
<g>
</g>
<g>
</g>
<g>
</g>
<g>
</g>
<g>
</g>
<g>
</g>
<g>
</g>
<g>
</g>
<g>
</g>
<g>
</g>
<g>
</g>
<g>
</g>
<g>
</g>
</svg>
