<?xml version="1.0" encoding="windows-1252"?>
<!-- Generator: Adobe Illustrator 19.0.0, SVG Export Plug-In . SVG Version: 6.00 Build 0)  -->
<svg version="1.1" id="Capa_1" xmlns="http://www.w3.org/2000/svg" xmlns:xlink="http://www.w3.org/1999/xlink" x="0px" y="0px" viewBox="0 0 512.16 512.16" style="enable-background:new 0 0 512.16 512.16;" xml:space="preserve">
<path style="fill:#F8B64C;" d="M331.845,289.728v44.789c-15.029,21.333-37.109,34.016-60.363,37.877  c-5.12,0.853-10.251,1.269-15.36,1.269c-28.491,0-57.173-13.12-75.637-39.04v-44.896H331.845L331.845,289.728z"/>
<g style="opacity:0.1;">
	<g>
		<path style="fill:#40596B;" d="M331.845,290.997v43.52c-15.029,21.333-37.109,34.016-60.363,37.877l-43.211-32.107    c6.293,2.773,13.024,4.245,19.947,4.245h16c14.293,0,27.947-5.963,37.557-16.523l10.56-11.52    C319.579,308.501,325.979,299.851,331.845,290.997"/>
	</g>
</g>
<path d="M512.08,439.147v72.981h-512v-72.981c0-20.373,12.48-38.731,31.456-46.08l148.853-58.56  c18.453,26.037,47.211,39.147,75.691,39.147c28.587,0,57.376-13.109,75.733-39.147l148.907,58.56  C499.6,400.544,512.08,418.773,512.08,439.147" style="fill:#40596B;"/>
<path d="M408.453,146.731c0,95.104-68.192,197.643-152.288,197.643S103.867,241.835,103.867,146.731  C103.867,51.648,172.059,0,256.155,0S408.453,51.648,408.453,146.731" style="fill:#90A4AE;"/>
<path d="M256.165,250.955c-22.368,0-45.045-1.003-67.403-2.976c-24.117-2.624-56.512-27.061-60.331-53.483  c-1.813-14.752-1.813-29.856,0.011-44.789c3.808-26.251,36.213-50.688,60.437-53.333c22.251-1.963,44.928-2.955,67.296-2.955  c22.357,0,45.035,1.003,67.403,2.976c24.117,2.624,56.491,27.061,60.331,53.461c1.824,14.795,1.824,29.899-0.011,44.811  c-3.829,26.251-36.213,50.688-60.437,53.312C301.189,249.963,278.523,250.955,256.165,250.955" style="fill:#40596B;"/>
<path d="M383.909,149.856c-3.851-26.4-36.224-50.837-60.331-53.461c-12.853-1.141-25.792-1.963-38.709-2.443  l-55.019,156.416c8.789,0.309,17.568,0.608,26.315,0.608c22.357,0,45.035-1.045,67.285-2.997  c24.235-2.624,56.619-27.061,60.448-53.333C385.723,179.755,385.723,164.629,383.909,149.856" style="fill:#334A5E;"/>
<path d="M256.165,93.397c12.672,0,25.419,0.416,38.187,1.067c3.872-22.08,19.371-51.019,37.504-77.984  C309.541,5.664,283.749,0,256.165,0s-53.376,5.664-75.691,16.48c18.112,26.955,33.611,55.893,37.504,77.984  C230.725,93.813,243.472,93.397,256.165,93.397" style="fill:#263238;"/>
<path style="fill:#ACB3BA;" d="M411.451,512.128H100.699v-23.392c0-28.267,22.901-51.189,51.179-51.189h208.416  c28.256,0,51.168,22.912,51.168,51.189v23.392H411.451z"/>
<g>
	<rect x="239.824" y="383.84" style="fill:#334A5E;" width="32.523" height="128.32"/>
	<path style="fill:#334A5E;" d="M162.992,346.859c21.376,30.123,56.181,48.128,93.088,48.128c37.067,0,71.893-18.005,93.163-48.192   c1.003-1.419,1.749-2.933,2.357-4.501l-19.787-7.787c-18.347,26.037-47.147,39.147-75.733,39.147   c-28.48,0-57.227-13.109-75.691-39.147l-19.787,7.787C161.221,343.851,161.968,345.419,162.992,346.859"/>
</g>
<g>
</g>
<g>
</g>
<g>
</g>
<g>
</g>
<g>
</g>
<g>
</g>
<g>
</g>
<g>
</g>
<g>
</g>
<g>
</g>
<g>
</g>
<g>
</g>
<g>
</g>
<g>
</g>
<g>
</g>
</svg>