<?xml version="1.0" encoding="iso-8859-1"?>
<!-- Generator: Adobe Illustrator 19.0.0, SVG Export Plug-In . SVG Version: 6.00 Build 0)  -->
<svg version="1.1" id="Layer_1" xmlns="http://www.w3.org/2000/svg" xmlns:xlink="http://www.w3.org/1999/xlink" x="0px" y="0px"
	 viewBox="0 0 512 512" style="enable-background:new 0 0 512 512;" xml:space="preserve">
<path style="fill:#F1543F;" d="M444.8,224h-42.667c-28.8,0-57.6-11.733-76.8-33.067C308.267,171.733,283.733,160,256,160
	s-52.267,11.733-69.333,29.867c-20.267,21.333-48,33.067-76.8,33.067H67.2C65.067,234.667,64,245.333,64,256
	c0,10.667,1.067,21.333,3.2,32h43.733c29.867,0,56.533,12.8,77.867,34.133c0,0,0,0,1.067,1.067C211.2,344.533,224,371.2,224,401.067
	v44.8c10.667,2.133,21.333,3.2,32,3.2c10.667,0,21.333-1.067,32-3.2v-44.8c0-29.867,13.867-57.6,34.133-77.867c0,0,0,0,1.067-1.067
	C343.467,300.8,371.2,288,401.067,288h44.8c2.133-10.667,3.2-21.333,3.2-32C448,245.333,446.933,234.667,444.8,224z"/>
<path style="fill:#FF7058;" d="M322.133,322.133C323.2,322.133,323.2,322.133,322.133,322.133C343.467,300.8,371.2,288,400,288h44.8
	c2.133-10.667,3.2-21.333,3.2-32c0-10.667-1.067-21.333-3.2-32h-42.667c-28.8,0-57.6-11.733-76.8-33.067
	C308.267,171.733,283.733,160,256,160s-52.267,11.733-69.333,29.867c-20.267,21.333-48,33.067-76.8,33.067H86.4
	c-1.067,8.533-1.067,14.933-1.067,22.4c0,14.933,2.133,28.8,5.333,42.667H112c29.867,0,56.533,12.8,77.867,34.133
	c0,0,0,0,1.067,1.067c21.333,21.333,34.133,48,34.133,77.867v28.8c17.067,5.333,35.2,7.467,53.333,7.467c3.2,0,7.467,0,10.667-1.067
	V400C288,371.2,301.867,343.467,322.133,322.133z"/>
<g>
	<path style="fill:#CDD6E0;" d="M512,256c0-70.4-28.8-134.4-74.667-181.333l-44.8,44.8C426.667,154.667,448,202.667,448,256
		s-21.333,101.333-56.533,135.467l45.867,45.867C483.2,390.4,512,326.4,512,256z"/>
	<path style="fill:#CDD6E0;" d="M64,256c0-53.333,21.333-101.333,56.533-135.467L74.667,74.667C28.8,120.533,0,184.533,0,256
		s28.8,134.4,74.667,181.333l44.8-44.8C85.333,357.333,64,309.333,64,256z"/>
</g>
<g>
	<path style="fill:#40596B;" d="M256,64c53.333,0,101.333,21.333,135.467,56.533l45.867-45.867C391.467,28.8,327.467,0,256,0
		S121.6,28.8,74.667,74.667l44.8,44.8C154.667,85.333,202.667,64,256,64z"/>
	<path style="fill:#40596B;" d="M256,448c-53.333,0-101.333-21.333-135.467-56.533l-45.867,45.867
		C120.533,483.2,184.533,512,256,512c70.4,0,134.4-28.8,181.333-74.667l-44.8-44.8C357.333,426.667,309.333,448,256,448z"/>
</g>
<ellipse style="fill:#FFD15C;" cx="256" cy="254.933" rx="62.933" ry="35.2"/>
<path style="fill:#F8B64C;" d="M203.733,254.933c0-18.133,25.6-34.133,57.6-35.2c-2.133,0-3.2,0-5.333,0
	c-34.133,0-62.933,16-62.933,35.2s27.733,35.2,62.933,35.2c2.133,0,3.2,0,5.333,0C229.333,289.067,203.733,274.133,203.733,254.933z
	"/>
<g>
</g>
<g>
</g>
<g>
</g>
<g>
</g>
<g>
</g>
<g>
</g>
<g>
</g>
<g>
</g>
<g>
</g>
<g>
</g>
<g>
</g>
<g>
</g>
<g>
</g>
<g>
</g>
<g>
</g>
</svg>
