<?xml version="1.0" encoding="iso-8859-1"?>
<!-- Generator: Adobe Illustrator 19.0.0, SVG Export Plug-In . SVG Version: 6.00 Build 0)  -->
<svg version="1.1" id="Capa_1" xmlns="http://www.w3.org/2000/svg" xmlns:xlink="http://www.w3.org/1999/xlink" x="0px" y="0px"
	 viewBox="0 0 512 512" style="enable-background:new 0 0 512 512;" xml:space="preserve">
<path style="fill:#A17852;" d="M411,394H101v-80h310V394z"/>
<rect x="256" y="314" style="fill:#715539;" width="155" height="80"/>
<path style="fill:#C8AD92;" d="M105.923,459H14.4l69.677-216H175.6L105.923,459z"/>
<path style="fill:#B38A65;" d="M497.6,459h-91.522L336.4,243h91.522L497.6,459z"/>
<path style="fill:#FFDB2D;" d="M160,163H50v-55c0-30.327,24.673-55,55-55s55,24.673,55,55V163z"/>
<path style="fill:#FEC000;" d="M462,163H352v-55c0-30.327,24.673-55,55-55s55,24.673,55,55V163z"/>
<path style="fill:#FF4F19;" d="M512,273H0V133h512V273z"/>
<rect x="256" y="133" style="fill:#EE2500;" width="256" height="140"/>
<path style="fill:#FFF5CB;" d="M149.209,273H0.791l112-140h148.418L149.209,273z"/>
<path style="fill:#FFDBA9;" d="M399.209,273H247.791l112-140h151.418L399.209,273z"/>
<g>
</g>
<g>
</g>
<g>
</g>
<g>
</g>
<g>
</g>
<g>
</g>
<g>
</g>
<g>
</g>
<g>
</g>
<g>
</g>
<g>
</g>
<g>
</g>
<g>
</g>
<g>
</g>
<g>
</g>
</svg>
