<?xml version="1.0" encoding="iso-8859-1"?>
<!-- Generator: Adobe Illustrator 19.0.0, SVG Export Plug-In . SVG Version: 6.00 Build 0)  -->
<svg version="1.1" id="Capa_1" xmlns="http://www.w3.org/2000/svg" xmlns:xlink="http://www.w3.org/1999/xlink" x="0px" y="0px"
	 viewBox="0 0 483.556 483.556" style="enable-background:new 0 0 483.556 483.556;" xml:space="preserve">
<g transform="matrix(1.25 0 0 -1.25 0 45)">
	<g>
		<g>
			<path style="fill:#292F33;" d="M193.422-72.089C86.596-72.089,0-110.295,0-157.422s86.596-85.333,193.422-85.333
				s193.422,38.207,193.422,85.333S300.248-72.089,193.422-72.089"/>
			<g>
				<path style="fill:#7D8B93;" d="M373.999-166.331c0.899,2.901,1.468,5.871,1.468,8.909c0,16.134-13.198,30.447-34.133,42.086
					v-31.607C353.655-152.746,364.658-159.243,373.999-166.331"/>
				<path style="fill:#7D8B93;" d="M45.511-115.313c-20.935-11.639-34.133-25.953-34.133-42.086c0-3.038,0.569-6.007,1.468-8.909
					c9.341,7.088,20.343,13.585,32.666,19.388V-115.313z"/>
			</g>
			<path style="fill:#CCD6DD;" d="M193.422-83.467c-54.226,0-112.299-12.06-147.911-31.869v-31.607
				c38.662,18.182,90.647,29.343,147.911,29.343s109.249-11.162,147.911-29.343v31.607
				C305.721-95.527,247.649-83.467,193.422-83.467"/>
		</g>
	</g>
</g>
<g>
</g>
<g>
</g>
<g>
</g>
<g>
</g>
<g>
</g>
<g>
</g>
<g>
</g>
<g>
</g>
<g>
</g>
<g>
</g>
<g>
</g>
<g>
</g>
<g>
</g>
<g>
</g>
<g>
</g>
</svg>
