<?xml version="1.0" encoding="iso-8859-1"?>
<!-- Generator: Adobe Illustrator 19.0.0, SVG Export Plug-In . SVG Version: 6.00 Build 0)  -->
<svg version="1.1" id="Capa_1" xmlns="http://www.w3.org/2000/svg" xmlns:xlink="http://www.w3.org/1999/xlink" x="0px" y="0px"
	 viewBox="0 0 512 512" style="enable-background:new 0 0 512 512;" xml:space="preserve">
<polygon style="fill:#A0EBFF;" points="411.263,294.621 101.175,294.621 124.582,156.702 387.856,156.702 "/>
<g>
	<ellipse style="fill:#FFB69E;" cx="320.23" cy="190.75" rx="24.14" ry="26.752"/>
	<path style="fill:#FFB69E;" d="M378.948,256.477c-0.075-16.76-12.438-30.395-27.558-30.395c-20.834,0-41.684,0-62.518,0
		c-15.12,0-27.482,13.635-27.557,30.394l-0.1,24.343h117.834L378.948,256.477z"/>
</g>
<path style="fill:#64AFFF;" d="M378.947,256.477c-0.075-16.76-12.438-30.395-27.558-30.395H334.64
	c-0.205,7.882-6.944,14.518-14.863,14.518c-7.948,0-14.66-6.608-14.864-14.518h-16.042c-15.12,0-27.482,13.635-27.557,30.394
	l-0.1,24.343h117.834L378.947,256.477z"/>
<path style="fill:#373C41;" d="M276.931,206.228h-41.863c-3.09,0-5.596-2.505-5.596-5.596v-10.905c0-3.09,2.505-5.596,5.596-5.596
	h41.863c3.09,0,5.596,2.505,5.596,5.596v10.905C282.527,203.723,280.022,206.228,276.931,206.228z"/>
<g style="opacity:0.38;">
	<polygon style="fill:#FFFFFF;" points="235.714,173.392 206.066,173.392 148.33,279.819 177.978,279.819 	"/>
</g>
<g style="opacity:0.36;">
	<polygon style="fill:#FFFFFF;" points="268.483,173.392 251.318,173.392 193.582,279.819 210.747,279.819 	"/>
</g>
<path style="fill:#D72846;" d="M429.956,305.798c1.787,9.586-5.574,18.46-15.335,18.46H97.719c-4.638,0-9.035-2.064-11.999-5.632
	c-2.964-3.568-4.187-8.269-3.336-12.829l28.142-150.866c1.377-7.385,7.823-12.739,15.335-12.739h260.618
	c7.512,0,13.958,5.354,15.335,12.739L429.956,305.798z M116.498,293.059h279.345L373.52,173.392h-234.7L116.498,293.059z"/>
<path style="fill:#696E73;" d="M320.447,240.185c-22.751,0-41.261,18.51-41.261,41.261c0,22.751,18.51,41.261,41.261,41.261
	c22.752,0,41.261-18.51,41.261-41.261C361.708,258.695,343.199,240.185,320.447,240.185z M320.447,309.585
	c-15.515,0-28.138-12.622-28.138-28.138c0-9.33,4.569-17.599,11.585-22.713c4.133-3.013,9.992-0.079,9.992,5.087
	c-0.29,5.055,0.861,8.207-1.692,11.822c-1.158,1.641-1.84,3.641-1.84,5.803c0,3.067,1.373,5.81,3.533,7.662v6.85h13.123v-6.849
	c2.16-1.852,3.533-4.594,3.533-7.662c0-2.162-0.682-4.162-1.841-5.803c-2.556-3.619-1.403-6.825-1.692-11.822
	c0-5.141,5.852-8.105,9.992-5.086c7.016,5.113,11.585,13.383,11.585,22.713C348.586,296.962,335.962,309.585,320.447,309.585z"/>
<path style="fill:#373C41;" d="M320.447,322.708c-22.752,0-41.262-18.51-41.262-41.261c0-22.751,18.51-41.261,41.262-41.261
	c22.751,0,41.261,18.51,41.261,41.261C361.708,304.198,343.198,322.708,320.447,322.708z M320.447,253.309
	c-15.516,0-28.139,12.623-28.139,28.138c0,15.516,12.623,28.138,28.139,28.138s28.138-12.623,28.138-28.138
	C348.585,265.931,335.963,253.309,320.447,253.309z"/>
<rect x="247.19" y="173.39" style="fill:#696E73;" width="19.11" height="10.74"/>
<path style="fill:#373C41;" d="M101.416,512c-7.546,0-13.664-6.118-13.664-13.664V387.797c0-20.895,16.939-37.834,37.834-37.834
	s37.834,16.939,37.834,37.834v110.539c0,7.546-6.118,13.664-13.664,13.664H101.416z"/>
<path style="fill:#272A2E;" d="M362.584,512c-7.546,0-13.664-6.118-13.664-13.664V384.779c0-19.229,16.939-34.816,37.834-34.816
	s37.834,15.588,37.834,34.816v113.557c0,7.546-6.118,13.664-13.664,13.664H362.584z"/>
<g>
	<rect x="101.54" y="454.25" style="fill:#50555A;" width="15.323" height="57.748"/>
	<rect x="134.31" y="454.25" style="fill:#50555A;" width="15.323" height="57.748"/>
	<rect x="362.71" y="454.25" style="fill:#50555A;" width="15.323" height="57.748"/>
	<rect x="395.48" y="454.25" style="fill:#50555A;" width="15.323" height="57.748"/>
</g>
<path style="fill:#D72846;" d="M98.632,313.239c-3.199,0-6.39-1.262-8.765-3.766L56.166,273.94
	c-4.59-4.839-4.387-12.483,0.452-17.073c4.841-4.591,12.484-4.388,17.074,0.452l33.701,35.533c4.59,4.839,4.387,12.483-0.452,17.073
	C104.605,312.14,101.615,313.239,98.632,313.239z"/>
<path style="fill:#F75C66;" d="M30.721,281.131h33.893c9.48,0,17.165-7.685,17.165-17.165v-13.061
	c0-9.48-7.685-17.165-17.165-17.165H30.721c-9.48,0-17.165,7.685-17.165,17.165v13.061
	C13.556,273.446,21.241,281.131,30.721,281.131z"/>
<path style="fill:#D72846;" d="M405.06,309.924c-4.84-4.59-5.042-12.234-0.453-17.073l33.7-35.533
	c4.59-4.839,12.234-5.043,17.073-0.452c4.84,4.59,5.042,12.234,0.453,17.073l-33.7,35.533
	C417.544,314.312,409.899,314.515,405.06,309.924z"/>
<path style="fill:#E64B55;" d="M481.279,281.131h-33.893c-9.48,0-17.165-7.685-17.165-17.165v-13.061
	c0-9.48,7.685-17.165,17.165-17.165h33.893c9.48,0,17.165,7.685,17.165,17.165v13.061
	C498.444,273.446,490.759,281.131,481.279,281.131z"/>
<g style="opacity:0.22;">
	<path d="M163.42,478.871v-91.073c0-20.895-16.939-37.834-37.834-37.834s-37.834,16.939-37.834,37.834v77.03L163.42,478.871z"/>
	<path d="M424.589,478.871v-91.073c0-20.895-16.939-37.834-37.834-37.834s-37.834,16.939-37.834,37.834v77.03L424.589,478.871z"/>
</g>
<path style="fill:#E64B55;" d="M457.31,423.921c0,16.752-13.58,30.331-30.331,30.331H85.362c-16.752,0-30.331-13.58-30.331-30.331
	v-63.058c0-44.759,36.285-81.044,81.044-81.044h240.192c44.759,0,81.044,36.285,81.044,81.044v63.058H457.31z"/>
<path style="fill:#50555A;" d="M56.657,433.48c3.999,12.057,15.303,20.772,28.704,20.772h341.617
	c13.401,0,24.705-8.716,28.704-20.772H56.657z"/>
<g>
	<path style="fill:#D72846;" d="M316.168,433.48H197.665c-6.495,0-11.76-5.265-11.76-11.76v-59.371c0-6.495,5.265-11.76,11.76-11.76
		h118.504c6.495,0,11.76,5.265,11.76,11.76v59.371C327.929,428.215,322.663,433.48,316.168,433.48z"/>
	<ellipse style="fill:#D72846;" cx="124.58" cy="376.59" rx="33.19" ry="33.21"/>
	<ellipse style="fill:#D72846;" cx="387.76" cy="376.59" rx="33.19" ry="33.21"/>
</g>
<g>
	<ellipse style="fill:#FAC855;" cx="124.58" cy="368.79" rx="33.19" ry="33.21"/>
	<ellipse style="fill:#FAC855;" cx="387.76" cy="368.79" rx="33.19" ry="33.21"/>
</g>
<path style="fill:#B9B9BE;" d="M289.555,438.982h-65.611c-3.796,0-6.873-3.077-6.873-6.873v-17.29c0-3.796,3.077-6.873,6.873-6.873
	h65.611c3.796,0,6.873,3.077,6.873,6.873v17.29C296.428,435.905,293.351,438.982,289.555,438.982z"/>
<path style="fill:#D2D2D7;" d="M289.555,407.946h-65.611c-3.796,0-6.873,3.077-6.873,6.873v7.802c0-3.796,3.077-6.873,6.873-6.873
	h65.611c3.796,0,6.873,3.077,6.873,6.873v-7.802C296.428,411.023,293.351,407.946,289.555,407.946z"/>
<g>
	<ellipse style="fill:#FAF58C;" cx="387.76" cy="368.79" rx="18.818" ry="18.829"/>
	<ellipse style="fill:#FAF58C;" cx="124.58" cy="368.79" rx="18.818" ry="18.829"/>
</g>
<path style="fill:#E64B55;" d="M302.743,364.746h-91.986c-5.357,0-9.701,4.343-9.701,9.7s4.343,9.701,9.701,9.701h91.986
	c5.357,0,9.701-4.343,9.701-9.701S308.1,364.746,302.743,364.746z"/>
<path style="fill:#F75C66;" d="M158.581,318.231c5.164,7.17,13.461,11.419,22.297,11.419h143.936
	c13.01,0,25.227-6.257,32.831-16.814l23.656-32.846c-1.667-0.102-3.343-0.171-5.035-0.171H136.074c-1.693,0-3.368,0.069-5.035,0.171
	L158.581,318.231z"/>
<g>
	<path style="fill:#FA870A;" d="M87.752,420.356v-12.573c0-4.227-3.427-7.654-7.654-7.654H55.03v23.791
		c0,1.387,0.102,2.75,0.282,4.088h24.785C84.325,428.009,87.752,424.583,87.752,420.356z"/>
	<path style="fill:#FA870A;" d="M432.789,400.13c-4.227,0-7.654,3.427-7.654,7.654v12.573c0,4.227,3.427,7.654,7.654,7.654h24.24
		c0.18-1.338,0.282-2.701,0.282-4.088V400.13H432.789z"/>
</g>
<path style="fill:#50555A;" d="M244.002,197.327c26.157-3.641,46.296-26.084,46.296-53.243c0-19.749-10.654-37.001-26.521-46.351
	c5.752-7.153,9.202-16.237,9.202-26.131c0-23.051-18.687-41.738-41.738-41.738c-0.185,0-0.368,0.012-0.553,0.014
	C226.505,12.731,211.05,0,192.614,0c-21.648,0-39.198,17.55-39.198,39.198c0,6.246,1.468,12.146,4.066,17.386
	c-25.243,6.538-43.886,29.469-43.886,56.757c0,32.379,26.249,58.628,58.628,58.628c0.304,0,0.604-0.018,0.907-0.023
	c-0.013,0.06-0.028,0.119-0.041,0.178c-19.392,1.697-34.606,17.967-34.606,37.8c0,19.54,14.767,35.624,33.749,37.718
	c0.182,17.893,14.736,32.343,32.672,32.343c18.049,0,32.681-14.632,32.681-32.681c0-13.422-8.095-24.949-19.666-29.98
	C229.338,214.952,238.867,207.444,244.002,197.327z"/>
<g>
</g>
<g>
</g>
<g>
</g>
<g>
</g>
<g>
</g>
<g>
</g>
<g>
</g>
<g>
</g>
<g>
</g>
<g>
</g>
<g>
</g>
<g>
</g>
<g>
</g>
<g>
</g>
<g>
</g>
</svg>
